<svg width="67" height="32" viewBox="0 0 67 32" fill="none" xmlns="http://www.w3.org/2000/svg">
<path d="M52.3409 31V19.3636H56.4887C57.3902 19.3636 58.1383 19.5189 58.733 19.8295C59.3315 20.1401 59.7784 20.5701 60.0739 21.1193C60.3694 21.6648 60.5171 22.2954 60.5171 23.0113C60.5171 23.7235 60.3675 24.3504 60.0682 24.892C59.7728 25.4299 59.3258 25.8485 58.7273 26.1477C58.1326 26.447 57.3845 26.5966 56.483 26.5966H53.3409V25.0852H56.3239C56.8921 25.0852 57.3542 25.0038 57.7103 24.8409C58.0701 24.678 58.3334 24.4413 58.5 24.1307C58.6667 23.8201 58.75 23.447 58.75 23.0113C58.75 22.572 58.6648 22.1913 58.4944 21.8693C58.3277 21.5473 58.0644 21.3011 57.7046 21.1307C57.3485 20.9564 56.8807 20.8693 56.3012 20.8693H54.0966V31H52.3409ZM58.0853 25.75L60.9603 31H58.9603L56.1421 25.75H58.0853Z" fill="#977419"/>
<path d="M42.7003 31V19.3636H49.9958V20.875H44.456V24.4204H49.6151V25.9261H44.456V29.4886H50.064V31H42.7003Z" fill="#977419"/>
<path d="M34.9205 31H31.1534V19.3636H35.0398C36.18 19.3636 37.1591 19.5966 37.9773 20.0625C38.7955 20.5246 39.4224 21.1894 39.858 22.0568C40.2974 22.9204 40.5171 23.9564 40.5171 25.1648C40.5171 26.3769 40.2955 27.4185 39.8523 28.2898C39.4129 29.161 38.7766 29.8314 37.9432 30.3011C37.1099 30.767 36.1023 31 34.9205 31ZM32.9091 29.4659H34.8239C35.7103 29.4659 36.447 29.2992 37.0341 28.9659C37.6212 28.6288 38.0606 28.142 38.3523 27.5057C38.644 26.8655 38.7898 26.0852 38.7898 25.1648C38.7898 24.2519 38.644 23.4773 38.3523 22.8409C38.0644 22.2045 37.6345 21.7216 37.0625 21.392C36.4906 21.0625 35.7803 20.8977 34.9319 20.8977H32.9091V29.4659Z" fill="#977419"/>
<path d="M28.5966 19.3636V31H26.8409V19.3636H28.5966Z" fill="#977419"/>
<path d="M22.8907 22.4204C22.8301 21.8826 22.5801 21.4659 22.1407 21.1704C21.7013 20.8712 21.1483 20.7216 20.4816 20.7216C20.0043 20.7216 19.5914 20.7973 19.243 20.9488C18.8945 21.0966 18.6236 21.3011 18.4305 21.5625C18.2411 21.8201 18.1464 22.1136 18.1464 22.4432C18.1464 22.7197 18.2108 22.9583 18.3395 23.1591C18.4721 23.3598 18.6445 23.5284 18.8566 23.6648C19.0725 23.7973 19.3036 23.9091 19.5498 24C19.796 24.0871 20.0327 24.1591 20.26 24.2159L21.3964 24.5113C21.7676 24.6023 22.1483 24.7254 22.5384 24.8807C22.9286 25.036 23.2903 25.2405 23.6236 25.4943C23.957 25.7481 24.2259 26.0625 24.4305 26.4375C24.6388 26.8125 24.743 27.2613 24.743 27.7841C24.743 28.4432 24.5725 29.0284 24.2316 29.5398C23.8945 30.0511 23.4039 30.4545 22.76 30.75C22.1198 31.0454 21.3452 31.1932 20.4361 31.1932C19.5649 31.1932 18.8111 31.0549 18.1748 30.7784C17.5384 30.5019 17.0403 30.1098 16.6805 29.6023C16.3206 29.0909 16.1217 28.4848 16.0839 27.7841H17.8452C17.8793 28.2045 18.0157 28.5549 18.2543 28.8352C18.4967 29.1117 18.8055 29.3182 19.1805 29.4545C19.5592 29.5871 19.974 29.6534 20.4248 29.6534C20.921 29.6534 21.3623 29.5757 21.7486 29.4204C22.1388 29.2613 22.4456 29.0417 22.6691 28.7613C22.8926 28.4773 23.0043 28.1458 23.0043 27.767C23.0043 27.4223 22.9058 27.1401 22.7089 26.9204C22.5157 26.7007 22.2524 26.5189 21.9191 26.375C21.5895 26.231 21.2164 26.1042 20.7998 25.9943L19.4248 25.6193C18.493 25.3655 17.7543 24.9924 17.2089 24.5C16.6672 24.0076 16.3964 23.356 16.3964 22.5454C16.3964 21.875 16.5782 21.2898 16.9418 20.7898C17.3055 20.2898 17.7979 19.9015 18.4191 19.625C19.0403 19.3447 19.7411 19.2045 20.5214 19.2045C21.3092 19.2045 22.0043 19.3428 22.6066 19.6193C23.2127 19.8958 23.6899 20.2765 24.0384 20.7613C24.3869 21.2424 24.5687 21.7954 24.5839 22.4204H22.8907Z" fill="#977419"/>
<path d="M13.983 19.3636V31H12.3694L6.45458 22.4659H6.34662V31H4.59094V19.3636H6.21594L12.1364 27.9091H12.2444V19.3636H13.983Z" fill="#977419"/>
<path d="M2.03412 19.3636V31H0.278442V19.3636H2.03412Z" fill="#977419"/>
<path d="M58.8097 12V0.363617H66.1052V1.87498H60.5654V5.42043H65.7245V6.92612H60.5654V10.4886H66.1733V12H58.8097Z" fill="black"/>
<path d="M44.4503 0.363617H46.581L50.2855 9.40907H50.4219L54.1265 0.363617H56.2571V12H54.5867V3.57953H54.4787L51.0469 11.9829H49.6605L46.2287 3.57384H46.1208V12H44.4503V0.363617Z" fill="black"/>
<path d="M42.2614 6.1818C42.2614 7.42423 42.0341 8.49241 41.5796 9.38635C41.125 10.2765 40.5019 10.9621 39.7103 11.4432C38.9224 11.9204 38.0266 12.1591 37.0228 12.1591C36.0152 12.1591 35.1156 11.9204 34.3239 11.4432C33.536 10.9621 32.9148 10.2746 32.4603 9.38067C32.0057 8.48673 31.7784 7.42044 31.7784 6.1818C31.7784 4.93938 32.0057 3.87309 32.4603 2.98294C32.9148 2.089 33.536 1.40339 34.3239 0.92612C35.1156 0.445059 36.0152 0.204529 37.0228 0.204529C38.0266 0.204529 38.9224 0.445059 39.7103 0.92612C40.5019 1.40339 41.125 2.089 41.5796 2.98294C42.0341 3.87309 42.2614 4.93938 42.2614 6.1818ZM40.5228 6.1818C40.5228 5.23483 40.3694 4.43748 40.0625 3.78976C39.7595 3.13824 39.3428 2.64582 38.8125 2.31248C38.286 1.97536 37.6894 1.8068 37.0228 1.8068C36.3523 1.8068 35.7538 1.97536 35.2273 2.31248C34.7008 2.64582 34.2841 3.13824 33.9773 3.78976C33.6743 4.43748 33.5228 5.23483 33.5228 6.1818C33.5228 7.12877 33.6743 7.92801 33.9773 8.57953C34.2841 9.22726 34.7008 9.71968 35.2273 10.0568C35.7538 10.3901 36.3523 10.5568 37.0228 10.5568C37.6894 10.5568 38.286 10.3901 38.8125 10.0568C39.3428 9.71968 39.7595 9.22726 40.0625 8.57953C40.3694 7.92801 40.5228 7.12877 40.5228 6.1818Z" fill="black"/>
<path d="M30.0526 4.14771H28.2799C28.2117 3.76892 28.0848 3.43559 27.8992 3.14771C27.7136 2.85983 27.4863 2.61551 27.2174 2.41476C26.9484 2.214 26.6473 2.06248 26.314 1.96021C25.9844 1.85794 25.634 1.8068 25.2628 1.8068C24.5924 1.8068 23.992 1.97536 23.4617 2.31248C22.9352 2.64961 22.5185 3.14392 22.2117 3.79544C21.9086 4.44695 21.7571 5.24241 21.7571 6.1818C21.7571 7.12877 21.9086 7.92801 22.2117 8.57953C22.5185 9.23104 22.9371 9.72347 23.4674 10.0568C23.9977 10.3901 24.5943 10.5568 25.2571 10.5568C25.6246 10.5568 25.973 10.5076 26.3026 10.4091C26.6359 10.3068 26.9371 10.1572 27.206 9.96021C27.4749 9.76324 27.7022 9.52271 27.8878 9.23862C28.0772 8.95074 28.2079 8.6212 28.2799 8.24998L30.0526 8.25567C29.9579 8.82764 29.7742 9.35415 29.5015 9.83521C29.2325 10.3125 28.8859 10.7254 28.4617 11.0738C28.0412 11.4185 27.5602 11.6856 27.0185 11.875C26.4768 12.0644 25.8859 12.1591 25.2458 12.1591C24.2382 12.1591 23.3405 11.9204 22.5526 11.4432C21.7647 10.9621 21.1435 10.2746 20.689 9.38067C20.2382 8.48673 20.0128 7.42044 20.0128 6.1818C20.0128 4.93938 20.2401 3.87309 20.6946 2.98294C21.1492 2.089 21.7704 1.40339 22.5583 0.92612C23.3462 0.445059 24.242 0.204529 25.2458 0.204529C25.8632 0.204529 26.439 0.293544 26.973 0.471575C27.5109 0.645817 27.9939 0.903392 28.4219 1.2443C28.8499 1.58142 29.2041 1.9943 29.4844 2.48294C29.7647 2.96779 29.9541 3.52271 30.0526 4.14771Z" fill="black"/>
<path d="M10.7472 12V0.363617H18.0426V1.87498H12.5029V5.42043H17.662V6.92612H12.5029V10.4886H18.1108V12H10.7472Z" fill="black"/>
<path d="M0.278442 12V0.363617H4.53981C5.36556 0.363617 6.04928 0.499981 6.59094 0.772708C7.13261 1.04165 7.53791 1.40718 7.80685 1.8693C8.07579 2.32763 8.21026 2.84468 8.21026 3.42043C8.21026 3.90528 8.12125 4.31437 7.94322 4.64771C7.76519 4.97725 7.52655 5.24241 7.22731 5.44316C6.93185 5.64013 6.60609 5.78407 6.25003 5.87498V5.98862C6.6364 6.00756 7.01329 6.13256 7.38072 6.36362C7.75193 6.59089 8.05875 6.91475 8.30117 7.33521C8.54359 7.75566 8.66481 8.26703 8.66481 8.8693C8.66481 9.464 8.52465 9.99809 8.24435 10.4716C7.96784 10.9413 7.53981 11.3144 6.96026 11.5909C6.38072 11.8636 5.64019 12 4.73867 12H0.278442ZM2.03412 10.4943H4.56822C5.40912 10.4943 6.0114 10.3314 6.37503 10.0057C6.73867 9.6799 6.92049 9.27271 6.92049 8.78407C6.92049 8.41665 6.82769 8.07953 6.64208 7.77271C6.45647 7.46589 6.19132 7.22157 5.84662 7.03975C5.50572 6.85793 5.10041 6.76703 4.63072 6.76703H2.03412V10.4943ZM2.03412 5.39771H4.3864C4.78034 5.39771 5.1345 5.32195 5.4489 5.17043C5.76708 5.01892 6.01897 4.8068 6.20458 4.53407C6.39397 4.25756 6.48867 3.9318 6.48867 3.5568C6.48867 3.07574 6.32011 2.67233 5.98299 2.34657C5.64587 2.02081 5.12882 1.85793 4.43185 1.85793H2.03412V5.39771Z" fill="black"/>
</svg>
