<svg width="233" height="16" viewBox="0 0 233 16" fill="none" xmlns="http://www.w3.org/2000/svg">
<path d="M232.472 5.36365L231.545 5.62501C231.455 5.36365 231.326 5.12691 231.159 4.91479C230.992 4.70267 230.775 4.5341 230.506 4.4091C230.241 4.2841 229.911 4.2216 229.517 4.2216C228.926 4.2216 228.441 4.36176 228.062 4.64206C227.684 4.92236 227.494 5.2841 227.494 5.72729C227.494 6.10229 227.623 6.40721 227.881 6.64206C228.142 6.87312 228.544 7.05683 229.085 7.1932L230.403 7.51706C231.134 7.69509 231.682 7.97729 232.045 8.36365C232.413 8.75001 232.597 9.23486 232.597 9.8182C232.597 10.3106 232.46 10.7481 232.188 11.1307C231.915 11.5133 231.534 11.8144 231.045 12.0341C230.561 12.25 229.998 12.358 229.358 12.358C228.506 12.358 227.803 12.1667 227.25 11.7841C226.697 11.3977 226.343 10.8409 226.188 10.1137L227.159 9.87501C227.284 10.394 227.528 10.786 227.892 11.0512C228.259 11.3163 228.742 11.4489 229.341 11.4489C230.011 11.4489 230.547 11.2993 230.949 11C231.35 10.697 231.551 10.3182 231.551 9.86365C231.551 9.51138 231.434 9.21592 231.199 8.97729C230.964 8.73486 230.608 8.55683 230.131 8.4432L228.705 8.10229C227.947 7.92047 227.386 7.63259 227.023 7.23865C226.659 6.84471 226.477 6.35607 226.477 5.77274C226.477 5.29168 226.608 4.86933 226.869 4.5057C227.131 4.13827 227.491 3.85039 227.949 3.64206C228.407 3.43373 228.93 3.32956 229.517 3.32956C230.316 3.32956 230.955 3.51138 231.432 3.87501C231.913 4.23486 232.259 4.73107 232.472 5.36365Z" fill="black"/>
<path d="M224.467 3.44888V4.32956H220.303V3.44888H224.467ZM221.604 1.35797H222.621V9.89774C222.621 10.2614 222.683 10.5474 222.808 10.7557C222.933 10.9602 223.096 11.1061 223.297 11.1932C223.498 11.2765 223.712 11.3182 223.939 11.3182C224.072 11.3182 224.185 11.3106 224.28 11.2955C224.375 11.2765 224.458 11.2576 224.53 11.2387L224.746 12.1534C224.647 12.1913 224.526 12.2254 224.382 12.2557C224.238 12.2898 224.06 12.3068 223.848 12.3068C223.477 12.3068 223.119 12.2254 222.774 12.0625C222.433 11.8996 222.153 11.6572 221.933 11.3352C221.714 11.0133 221.604 10.6137 221.604 10.1364V1.35797Z" fill="black"/>
<path d="M215.533 12.358C214.752 12.358 214.072 12.1629 213.493 11.7727C212.917 11.3826 212.47 10.8485 212.152 10.1705C211.834 9.49244 211.675 8.71971 211.675 7.85229C211.675 6.97729 211.836 6.19888 212.158 5.51706C212.483 4.83524 212.934 4.30115 213.51 3.91479C214.086 3.52463 214.754 3.32956 215.516 3.32956C216.099 3.32956 216.627 3.4432 217.101 3.67047C217.574 3.89395 217.964 4.21024 218.271 4.61933C218.582 5.02463 218.777 5.49812 218.856 6.03979H217.834C217.728 5.54736 217.472 5.12691 217.067 4.77842C216.665 4.42615 216.154 4.25001 215.533 4.25001C214.976 4.25001 214.483 4.40153 214.055 4.70456C213.627 5.0038 213.292 5.42236 213.05 5.96024C212.811 6.49433 212.692 7.11365 212.692 7.8182C212.692 8.52653 212.809 9.15342 213.044 9.69888C213.279 10.2405 213.608 10.6648 214.033 10.9716C214.461 11.2784 214.961 11.4318 215.533 11.4318C215.919 11.4318 216.271 11.3599 216.589 11.2159C216.911 11.0682 217.18 10.8599 217.396 10.5909C217.616 10.322 217.764 10.0019 217.839 9.6307H218.862C218.786 10.1572 218.599 10.6269 218.3 11.0398C218.004 11.4489 217.62 11.7708 217.146 12.0057C216.677 12.2405 216.139 12.358 215.533 12.358Z" fill="black"/>
<path d="M208.435 8.8409V3.44885H209.446V12.1761H208.435V10.7273H208.355C208.151 11.1742 207.827 11.5473 207.383 11.8466C206.94 12.142 206.399 12.2898 205.758 12.2898C205.202 12.2898 204.707 12.1685 204.276 11.9261C203.844 11.6799 203.505 11.3201 203.258 10.8466C203.012 10.3731 202.889 9.79166 202.889 9.10226V3.44885H203.901V9.03976C203.901 9.72158 204.101 10.2708 204.503 10.6875C204.904 11.1004 205.419 11.3068 206.048 11.3068C206.442 11.3068 206.821 11.2121 207.185 11.0227C207.548 10.8333 207.848 10.5568 208.082 10.1932C208.317 9.82575 208.435 9.37499 208.435 8.8409Z" fill="black"/>
<path d="M196.219 12.3579C195.503 12.3579 194.876 12.1686 194.338 11.7898C193.8 11.411 193.38 10.8826 193.077 10.2045C192.777 9.52651 192.628 8.73673 192.628 7.83522C192.628 6.93749 192.777 6.15151 193.077 5.47726C193.38 4.79923 193.802 4.27272 194.344 3.89772C194.885 3.51893 195.516 3.32954 196.236 3.32954C196.766 3.32954 197.207 3.42423 197.56 3.61363C197.912 3.79923 198.194 4.03029 198.406 4.30681C198.618 4.58333 198.783 4.85226 198.901 5.11363H198.991V0.539764H200.008V12.1761H199.02V10.5568H198.901C198.783 10.822 198.616 11.0947 198.401 11.375C198.185 11.6515 197.899 11.8845 197.543 12.0739C197.19 12.2632 196.749 12.3579 196.219 12.3579ZM196.338 11.4318C196.902 11.4318 197.383 11.2784 197.781 10.9716C198.179 10.661 198.482 10.2348 198.69 9.69317C198.902 9.14772 199.008 8.52272 199.008 7.81817C199.008 7.1212 198.904 6.50567 198.696 5.97158C198.488 5.4337 198.185 5.01325 197.787 4.71022C197.389 4.4034 196.906 4.24999 196.338 4.24999C195.755 4.24999 195.262 4.40908 194.861 4.72726C194.463 5.04166 194.16 5.4678 193.952 6.00567C193.747 6.54355 193.645 7.14772 193.645 7.81817C193.645 8.4962 193.749 9.10795 193.957 9.6534C194.166 10.1989 194.469 10.6326 194.866 10.9545C195.268 11.2727 195.758 11.4318 196.338 11.4318Z" fill="black"/>
<path d="M187.016 12.358C186.262 12.358 185.595 12.1667 185.016 11.7841C184.44 11.4015 183.989 10.8731 183.663 10.1989C183.338 9.52085 183.175 8.73865 183.175 7.85229C183.175 6.95835 183.338 6.17236 183.663 5.49433C183.989 4.81251 184.44 4.28221 185.016 3.90342C185.595 3.52085 186.262 3.32956 187.016 3.32956C187.769 3.32956 188.434 3.52085 189.01 3.90342C189.586 4.286 190.036 4.8163 190.362 5.49433C190.692 6.17236 190.856 6.95835 190.856 7.85229C190.856 8.73865 190.694 9.52085 190.368 10.1989C190.042 10.8731 189.589 11.4015 189.01 11.7841C188.434 12.1667 187.769 12.358 187.016 12.358ZM187.016 11.4318C187.622 11.4318 188.135 11.269 188.555 10.9432C188.976 10.6174 189.294 10.1837 189.51 9.64206C189.73 9.10039 189.839 8.5038 189.839 7.85229C189.839 7.20077 189.73 6.60229 189.51 6.05683C189.294 5.51138 188.976 5.07388 188.555 4.74433C188.135 4.41479 187.622 4.25001 187.016 4.25001C186.413 4.25001 185.9 4.41479 185.476 4.74433C185.055 5.07388 184.735 5.51138 184.516 6.05683C184.3 6.60229 184.192 7.20077 184.192 7.85229C184.192 8.5038 184.3 9.10039 184.516 9.64206C184.735 10.1837 185.055 10.6174 185.476 10.9432C185.896 11.269 186.41 11.4318 187.016 11.4318Z" fill="black"/>
<path d="M178.186 12.1761V3.44886H179.169V4.78977H179.243C179.417 4.35037 179.72 3.99621 180.152 3.72727C180.588 3.45454 181.08 3.31818 181.629 3.31818C181.713 3.31818 181.805 3.32007 181.908 3.32386C182.01 3.32765 182.095 3.33143 182.163 3.33522V4.36363C182.118 4.35606 182.038 4.34469 181.925 4.32954C181.811 4.31439 181.688 4.30681 181.555 4.30681C181.101 4.30681 180.696 4.4034 180.339 4.59659C179.987 4.78598 179.709 5.04924 179.504 5.38636C179.3 5.72348 179.197 6.10795 179.197 6.53977V12.1761H178.186Z" fill="black"/>
<path d="M168.592 15.4489V3.44888H169.575V5.11365H169.695C169.816 4.85229 169.982 4.58524 170.195 4.31251C170.407 4.036 170.687 3.80304 171.035 3.61365C171.388 3.42426 171.831 3.32956 172.365 3.32956C173.085 3.32956 173.714 3.51895 174.251 3.89774C174.793 4.27274 175.213 4.79926 175.513 5.47729C175.816 6.15153 175.967 6.93751 175.967 7.83524C175.967 8.73676 175.816 9.52653 175.513 10.2046C175.213 10.8826 174.793 11.411 174.251 11.7898C173.714 12.1686 173.089 12.358 172.376 12.358C171.85 12.358 171.409 12.2633 171.053 12.0739C170.7 11.8845 170.414 11.6515 170.195 11.375C169.979 11.0947 169.812 10.822 169.695 10.5568H169.604V15.4489H168.592ZM169.592 7.8182C169.592 8.52274 169.696 9.14774 169.905 9.6932C170.117 10.2349 170.42 10.661 170.814 10.9716C171.212 11.2784 171.693 11.4318 172.257 11.4318C172.837 11.4318 173.325 11.2727 173.723 10.9546C174.124 10.6326 174.429 10.1989 174.638 9.65342C174.85 9.10797 174.956 8.49623 174.956 7.8182C174.956 7.14774 174.852 6.54358 174.643 6.0057C174.439 5.46782 174.136 5.04168 173.734 4.72729C173.333 4.4091 172.84 4.25001 172.257 4.25001C171.689 4.25001 171.206 4.40342 170.808 4.71024C170.41 5.01327 170.107 5.43373 169.899 5.9716C169.695 6.5057 169.592 7.12123 169.592 7.8182Z" fill="black"/>
<path d="M157.422 12.3579C156.706 12.3579 156.079 12.1686 155.541 11.7898C155.003 11.411 154.583 10.8826 154.28 10.2045C153.981 9.52651 153.831 8.73673 153.831 7.83522C153.831 6.93749 153.981 6.15151 154.28 5.47726C154.583 4.79923 155.005 4.27272 155.547 3.89772C156.089 3.51893 156.719 3.32954 157.439 3.32954C157.969 3.32954 158.41 3.42423 158.763 3.61363C159.115 3.79923 159.397 4.03029 159.609 4.30681C159.821 4.58333 159.986 4.85226 160.104 5.11363H160.195V0.539764H161.212V12.1761H160.223V10.5568H160.104C159.986 10.822 159.82 11.0947 159.604 11.375C159.388 11.6515 159.102 11.8845 158.746 12.0739C158.393 12.2632 157.952 12.3579 157.422 12.3579ZM157.541 11.4318C158.106 11.4318 158.587 11.2784 158.984 10.9716C159.382 10.661 159.685 10.2348 159.893 9.69317C160.106 9.14772 160.212 8.52272 160.212 7.81817C160.212 7.1212 160.107 6.50567 159.899 5.97158C159.691 5.4337 159.388 5.01325 158.99 4.71022C158.592 4.4034 158.109 4.24999 157.541 4.24999C156.958 4.24999 156.465 4.40908 156.064 4.72726C155.666 5.04166 155.363 5.4678 155.155 6.00567C154.95 6.54355 154.848 7.14772 154.848 7.81817C154.848 8.4962 154.952 9.10795 155.16 9.6534C155.369 10.1989 155.672 10.6326 156.07 10.9545C156.471 11.2727 156.962 11.4318 157.541 11.4318Z" fill="black"/>
<path d="M146.026 6.7216V12.1761H145.014V3.44887H145.997V4.81819H146.088C146.293 4.37122 146.611 4.01327 147.043 3.74433C147.478 3.4716 148.016 3.33524 148.656 3.33524C149.243 3.33524 149.758 3.45834 150.202 3.70455C150.649 3.94698 150.995 4.30493 151.241 4.77842C151.491 5.2519 151.616 5.83334 151.616 6.52273V12.1761H150.605V6.58523C150.605 5.86933 150.404 5.30304 150.003 4.88637C149.605 4.4697 149.071 4.26137 148.401 4.26137C147.942 4.26137 147.535 4.35986 147.179 4.55683C146.823 4.7538 146.541 5.03789 146.332 5.4091C146.128 5.77652 146.026 6.21402 146.026 6.7216Z" fill="black"/>
<path d="M138.545 12.375C138.019 12.375 137.538 12.2727 137.102 12.0682C136.667 11.8599 136.32 11.5606 136.063 11.1705C135.805 10.7765 135.676 10.2993 135.676 9.73865C135.676 9.30683 135.758 8.9432 135.92 8.64774C136.083 8.35229 136.314 8.10986 136.614 7.92047C136.913 7.73107 137.267 7.58145 137.676 7.4716C138.085 7.36176 138.536 7.27653 139.028 7.21592C139.517 7.15532 139.93 7.10229 140.267 7.05683C140.608 7.01138 140.867 6.93941 141.045 6.84092C141.223 6.74244 141.313 6.58335 141.313 6.36365V6.1591C141.313 5.56441 141.134 5.0966 140.778 4.7557C140.426 4.411 139.919 4.23865 139.256 4.23865C138.627 4.23865 138.114 4.37691 137.716 4.65342C137.322 4.92994 137.045 5.2557 136.886 5.6307L135.926 5.2841C136.123 4.80683 136.396 4.42615 136.744 4.14206C137.093 3.85418 137.483 3.64774 137.915 3.52274C138.347 3.39395 138.784 3.32956 139.227 3.32956C139.561 3.32956 139.907 3.37312 140.267 3.46024C140.631 3.54736 140.968 3.69888 141.278 3.91479C141.589 4.12691 141.841 4.42426 142.034 4.80683C142.227 5.18562 142.324 5.66668 142.324 6.25001V12.1762H141.313V10.7955H141.25C141.129 11.053 140.949 11.303 140.71 11.5455C140.472 11.7879 140.172 11.9868 139.813 12.1421C139.453 12.2974 139.03 12.375 138.545 12.375ZM138.682 11.4489C139.22 11.4489 139.686 11.3296 140.08 11.0909C140.473 10.8523 140.777 10.536 140.989 10.1421C141.205 9.74433 141.313 9.30683 141.313 8.82956V7.5682C141.237 7.64017 141.11 7.70456 140.932 7.76138C140.758 7.8182 140.555 7.86933 140.324 7.91479C140.097 7.95645 139.869 7.99244 139.642 8.02274C139.415 8.05304 139.21 8.07956 139.028 8.10229C138.536 8.16289 138.116 8.25759 137.767 8.38638C137.419 8.51517 137.152 8.6932 136.966 8.92047C136.78 9.14395 136.688 9.43183 136.688 9.7841C136.688 10.3144 136.877 10.7254 137.256 11.0171C137.634 11.3049 138.11 11.4489 138.682 11.4489Z" fill="black"/>
<path d="M129.268 5.36365L128.342 5.62501C128.251 5.36365 128.123 5.12691 127.956 4.91479C127.789 4.70267 127.571 4.5341 127.303 4.4091C127.037 4.2841 126.708 4.2216 126.314 4.2216C125.723 4.2216 125.238 4.36176 124.859 4.64206C124.481 4.92236 124.291 5.2841 124.291 5.72729C124.291 6.10229 124.42 6.40721 124.678 6.64206C124.939 6.87312 125.34 7.05683 125.882 7.1932L127.2 7.51706C127.931 7.69509 128.479 7.97729 128.842 8.36365C129.21 8.75001 129.393 9.23486 129.393 9.8182C129.393 10.3106 129.257 10.7481 128.984 11.1307C128.712 11.5133 128.331 11.8144 127.842 12.0341C127.357 12.25 126.795 12.358 126.155 12.358C125.303 12.358 124.6 12.1667 124.047 11.7841C123.494 11.3977 123.14 10.8409 122.984 10.1137L123.956 9.87501C124.081 10.394 124.325 10.786 124.689 11.0512C125.056 11.3163 125.539 11.4489 126.138 11.4489C126.808 11.4489 127.344 11.2993 127.746 11C128.147 10.697 128.348 10.3182 128.348 9.86365C128.348 9.51138 128.231 9.21592 127.996 8.97729C127.761 8.73486 127.405 8.55683 126.928 8.4432L125.501 8.10229C124.744 7.92047 124.183 7.63259 123.82 7.23865C123.456 6.84471 123.274 6.35607 123.274 5.77274C123.274 5.29168 123.405 4.86933 123.666 4.5057C123.928 4.13827 124.287 3.85039 124.746 3.64206C125.204 3.43373 125.727 3.32956 126.314 3.32956C127.113 3.32956 127.751 3.51138 128.229 3.87501C128.71 4.23486 129.056 4.73107 129.268 5.36365Z" fill="black"/>
<path d="M116.734 12.3579C116.018 12.3579 115.392 12.1686 114.854 11.7898C114.316 11.411 113.895 10.8826 113.592 10.2045C113.293 9.52651 113.143 8.73673 113.143 7.83522C113.143 6.93749 113.293 6.15151 113.592 5.47726C113.895 4.79923 114.318 4.27272 114.859 3.89772C115.401 3.51893 116.032 3.32954 116.751 3.32954C117.282 3.32954 117.723 3.42423 118.075 3.61363C118.428 3.79923 118.71 4.03029 118.922 4.30681C119.134 4.58333 119.299 4.85226 119.416 5.11363H119.507V0.539764H120.524V12.1761H119.535V10.5568H119.416C119.299 10.822 119.132 11.0947 118.916 11.375C118.7 11.6515 118.414 11.8845 118.058 12.0739C117.706 12.2632 117.265 12.3579 116.734 12.3579ZM116.854 11.4318C117.418 11.4318 117.899 11.2784 118.297 10.9716C118.695 10.661 118.998 10.2348 119.206 9.69317C119.418 9.14772 119.524 8.52272 119.524 7.81817C119.524 7.1212 119.42 6.50567 119.212 5.97158C119.003 5.4337 118.7 5.01325 118.303 4.71022C117.905 4.4034 117.422 4.24999 116.854 4.24999C116.27 4.24999 115.778 4.40908 115.376 4.72726C114.979 5.04166 114.676 5.4678 114.467 6.00567C114.263 6.54355 114.16 7.14772 114.16 7.81817C114.16 8.4962 114.265 9.10795 114.473 9.6534C114.681 10.1989 114.984 10.6326 115.382 10.9545C115.784 11.2727 116.274 11.4318 116.854 11.4318Z" fill="black"/>
<path d="M105.338 6.7216V12.1761H104.327V3.44887H105.31V4.81819H105.401C105.605 4.37122 105.923 4.01327 106.355 3.74433C106.791 3.4716 107.329 3.33524 107.969 3.33524C108.556 3.33524 109.071 3.45834 109.514 3.70455C109.961 3.94698 110.308 4.30493 110.554 4.77842C110.804 5.2519 110.929 5.83334 110.929 6.52273V12.1761H109.918V6.58523C109.918 5.86933 109.717 5.30304 109.315 4.88637C108.918 4.4697 108.384 4.26137 107.713 4.26137C107.255 4.26137 106.848 4.35986 106.491 4.55683C106.135 4.7538 105.853 5.03789 105.645 5.4091C105.44 5.77652 105.338 6.21402 105.338 6.7216Z" fill="black"/>
<path d="M97.858 12.375C97.3314 12.375 96.8504 12.2727 96.4148 12.0682C95.9792 11.8599 95.6326 11.5606 95.375 11.1705C95.1174 10.7765 94.9886 10.2993 94.9886 9.73865C94.9886 9.30683 95.0701 8.9432 95.233 8.64774C95.3958 8.35229 95.6269 8.10986 95.9261 7.92047C96.2254 7.73107 96.5796 7.58145 96.9886 7.4716C97.3977 7.36176 97.8485 7.27653 98.3409 7.21592C98.8296 7.15532 99.2424 7.10229 99.5796 7.05683C99.9205 7.01138 100.18 6.93941 100.358 6.84092C100.536 6.74244 100.625 6.58335 100.625 6.36365V6.1591C100.625 5.56441 100.447 5.0966 100.091 4.7557C99.7386 4.411 99.2311 4.23865 98.5682 4.23865C97.9394 4.23865 97.4261 4.37691 97.0284 4.65342C96.6345 4.92994 96.358 5.2557 96.1989 5.6307L95.2386 5.2841C95.4356 4.80683 95.7083 4.42615 96.0568 4.14206C96.4053 3.85418 96.7955 3.64774 97.2273 3.52274C97.6591 3.39395 98.0966 3.32956 98.5398 3.32956C98.8731 3.32956 99.2197 3.37312 99.5796 3.46024C99.9432 3.54736 100.28 3.69888 100.591 3.91479C100.902 4.12691 101.153 4.42426 101.347 4.80683C101.54 5.18562 101.636 5.66668 101.636 6.25001V12.1762H100.625V10.7955H100.563C100.441 11.053 100.261 11.303 100.023 11.5455C99.7841 11.7879 99.4849 11.9868 99.125 12.1421C98.7652 12.2974 98.3428 12.375 97.858 12.375ZM97.9943 11.4489C98.5322 11.4489 98.9981 11.3296 99.3921 11.0909C99.786 10.8523 100.089 10.536 100.301 10.1421C100.517 9.74433 100.625 9.30683 100.625 8.82956V7.5682C100.549 7.64017 100.422 7.70456 100.244 7.76138C100.07 7.8182 99.8674 7.86933 99.6364 7.91479C99.4091 7.95645 99.1818 7.99244 98.9546 8.02274C98.7273 8.05304 98.5227 8.07956 98.3409 8.10229C97.8485 8.16289 97.428 8.25759 97.0796 8.38638C96.7311 8.51517 96.464 8.6932 96.2784 8.92047C96.0928 9.14395 96 9.43183 96 9.7841C96 10.3144 96.1894 10.7254 96.5682 11.0171C96.947 11.3049 97.4224 11.4489 97.9943 11.4489Z" fill="black"/>
<path d="M89.7173 12.1761V3.44886H90.7003V4.78977H90.7742C90.9484 4.35037 91.2514 3.99621 91.6833 3.72727C92.1189 3.45454 92.6113 3.31818 93.1605 3.31818C93.2439 3.31818 93.3367 3.32007 93.4389 3.32386C93.5412 3.32765 93.6264 3.33143 93.6946 3.33522V4.36363C93.6492 4.35606 93.5696 4.34469 93.456 4.32954C93.3423 4.31439 93.2192 4.30681 93.0867 4.30681C92.6321 4.30681 92.2268 4.4034 91.8708 4.59659C91.5185 4.78598 91.2401 5.04924 91.0355 5.38636C90.831 5.72348 90.7287 6.10795 90.7287 6.53977V12.1761H89.7173Z" fill="black"/>
<path d="M80.1151 12.1761V0.539764H81.1321V5.11363H81.223C81.3366 4.85226 81.4995 4.58333 81.7116 4.30681C81.9275 4.03029 82.2098 3.79923 82.5582 3.61363C82.9105 3.42423 83.3537 3.32954 83.8878 3.32954C84.6037 3.32954 85.2325 3.51893 85.7741 3.89772C86.3158 4.27272 86.7382 4.79923 87.0412 5.47726C87.3442 6.15151 87.4957 6.93749 87.4957 7.83522C87.4957 8.73673 87.3442 9.52651 87.0412 10.2045C86.7419 10.8826 86.3215 11.411 85.7798 11.7898C85.2419 12.1686 84.6169 12.3579 83.9048 12.3579C83.3745 12.3579 82.9313 12.2632 82.5753 12.0739C82.223 11.8845 81.9389 11.6515 81.723 11.375C81.5071 11.0947 81.3404 10.822 81.223 10.5568H81.098V12.1761H80.1151ZM81.1151 7.81817C81.1151 8.52272 81.2192 9.14772 81.4276 9.69317C81.6397 10.2348 81.9427 10.661 82.3366 10.9716C82.7344 11.2784 83.2154 11.4318 83.7798 11.4318C84.3594 11.4318 84.8499 11.2727 85.2514 10.9545C85.6529 10.6326 85.9578 10.1989 86.1662 9.6534C86.3745 9.10795 86.4787 8.4962 86.4787 7.81817C86.4787 7.14772 86.3745 6.54355 86.1662 6.00567C85.9616 5.4678 85.6586 5.04166 85.2571 4.72726C84.8556 4.40908 84.3632 4.24999 83.7798 4.24999C83.2116 4.24999 82.7287 4.4034 82.331 4.71022C81.937 5.01325 81.6359 5.4337 81.4276 5.97158C81.2192 6.50567 81.1151 7.1212 81.1151 7.81817Z" fill="black"/>
<path d="M69.7017 12.1761V3.44886H70.6847V4.78977H70.7585C70.9328 4.35037 71.2358 3.99621 71.6676 3.72727C72.1032 3.45454 72.5957 3.31818 73.1449 3.31818C73.2282 3.31818 73.321 3.32007 73.4233 3.32386C73.5256 3.32765 73.6108 3.33143 73.679 3.33522V4.36363C73.6335 4.35606 73.554 4.34469 73.4404 4.32954C73.3267 4.31439 73.2036 4.30681 73.071 4.30681C72.6165 4.30681 72.2112 4.4034 71.8551 4.59659C71.5029 4.78598 71.2245 5.04924 71.0199 5.38636C70.8154 5.72348 70.7131 6.10795 70.7131 6.53977V12.1761H69.7017Z" fill="black"/>
<path d="M63.6407 12.358C62.8869 12.358 62.2202 12.1667 61.6407 11.7841C61.0649 11.4015 60.6141 10.8731 60.2884 10.1989C59.9626 9.52085 59.7997 8.73865 59.7997 7.85229C59.7997 6.95835 59.9626 6.17236 60.2884 5.49433C60.6141 4.81251 61.0649 4.28221 61.6407 3.90342C62.2202 3.52085 62.8869 3.32956 63.6407 3.32956C64.3944 3.32956 65.0592 3.52085 65.635 3.90342C66.2107 4.286 66.6615 4.8163 66.9872 5.49433C67.3168 6.17236 67.4816 6.95835 67.4816 7.85229C67.4816 8.73865 67.3187 9.52085 66.9929 10.1989C66.6672 10.8731 66.2145 11.4015 65.635 11.7841C65.0592 12.1667 64.3944 12.358 63.6407 12.358ZM63.6407 11.4318C64.2467 11.4318 64.76 11.269 65.1804 10.9432C65.6009 10.6174 65.9191 10.1837 66.135 9.64206C66.3547 9.10039 66.4645 8.5038 66.4645 7.85229C66.4645 7.20077 66.3547 6.60229 66.135 6.05683C65.9191 5.51138 65.6009 5.07388 65.1804 4.74433C64.76 4.41479 64.2467 4.25001 63.6407 4.25001C63.0384 4.25001 62.5251 4.41479 62.1009 4.74433C61.6804 5.07388 61.3603 5.51138 61.1407 6.05683C60.9247 6.60229 60.8168 7.20077 60.8168 7.85229C60.8168 8.5038 60.9247 9.10039 61.1407 9.64206C61.3603 10.1837 61.6804 10.6174 62.1009 10.9432C62.5213 11.269 63.0346 11.4318 63.6407 11.4318Z" fill="black"/>
<path d="M58.5895 3.44886V4.32955H54.2997V3.44886H58.5895ZM55.6406 12.1761V2.17045C55.6406 1.70076 55.7485 1.30492 55.9645 0.982955C56.1842 0.660985 56.4701 0.416667 56.8224 0.25C57.1747 0.0833333 57.5478 0 57.9417 0C58.2069 0 58.4266 0.0227273 58.6008 0.068182C58.7788 0.109849 58.919 0.151515 59.0213 0.193182L58.7258 1.07955C58.6501 1.05682 58.5573 1.0303 58.4474 1C58.3376 0.969697 58.1993 0.954546 58.0326 0.954546C57.5932 0.954546 57.2542 1.07765 57.0156 1.32386C56.777 1.57008 56.6576 1.92235 56.6576 2.38068L56.652 12.1761H55.6406Z" fill="black"/>
<path d="M42.1818 6.72158V12.1761H41.1704V0.539764H42.1818V4.81817H42.2727C42.4772 4.36742 42.7935 4.00757 43.2215 3.73863C43.6534 3.46969 44.1988 3.33522 44.8579 3.33522C45.4488 3.33522 45.9678 3.45643 46.4147 3.69886C46.8617 3.94128 47.2102 4.29923 47.4602 4.77272C47.7102 5.2462 47.8352 5.82954 47.8352 6.52272V12.1761H46.8181V6.58522C46.8181 5.86552 46.6174 5.29923 46.2159 4.88636C45.8181 4.46969 45.2803 4.26136 44.6022 4.26136C44.1363 4.26136 43.7215 4.35984 43.3579 4.55681C42.9943 4.75378 42.7064 5.03787 42.4943 5.40908C42.2859 5.77651 42.1818 6.21401 42.1818 6.72158Z" fill="black"/>
<path d="M35.6733 12.358C34.893 12.358 34.213 12.1629 33.6335 11.7727C33.0577 11.3826 32.6108 10.8485 32.2926 10.1705C31.9744 9.49244 31.8153 8.71971 31.8153 7.85229C31.8153 6.97729 31.9763 6.19888 32.2983 5.51706C32.624 4.83524 33.0748 4.30115 33.6505 3.91479C34.2263 3.52463 34.8949 3.32956 35.6562 3.32956C36.2395 3.32956 36.768 3.4432 37.2414 3.67047C37.7149 3.89395 38.1051 4.21024 38.4119 4.61933C38.7225 5.02463 38.9176 5.49812 38.9971 6.03979H37.9744C37.8683 5.54736 37.6127 5.12691 37.2074 4.77842C36.8058 4.42615 36.2945 4.25001 35.6733 4.25001C35.1164 4.25001 34.624 4.40153 34.196 4.70456C33.768 5.0038 33.4327 5.42236 33.1903 5.96024C32.9517 6.49433 32.8324 7.11365 32.8324 7.8182C32.8324 8.52653 32.9498 9.15342 33.1846 9.69888C33.4195 10.2405 33.749 10.6648 34.1733 10.9716C34.6013 11.2784 35.1013 11.4318 35.6733 11.4318C36.0596 11.4318 36.4119 11.3599 36.7301 11.2159C37.052 11.0682 37.321 10.8599 37.5369 10.5909C37.7566 10.322 37.9043 10.0019 37.9801 9.6307H39.0028C38.9271 10.1572 38.7396 10.6269 38.4403 11.0398C38.1449 11.4489 37.7604 11.7708 37.2869 12.0057C36.8172 12.2405 36.2793 12.358 35.6733 12.358Z" fill="black"/>
<path d="M26.8267 12.1761V3.44886H27.8096V4.78977H27.8835C28.0577 4.35037 28.3608 3.99621 28.7926 3.72727C29.2282 3.45454 29.7206 3.31818 30.2698 3.31818C30.3532 3.31818 30.446 3.32007 30.5483 3.32386C30.6505 3.32765 30.7358 3.33143 30.8039 3.33522V4.36363C30.7585 4.35606 30.6789 4.34469 30.5653 4.32954C30.4517 4.31439 30.3286 4.30681 30.196 4.30681C29.7414 4.30681 29.3361 4.4034 28.9801 4.59659C28.6278 4.78598 28.3494 5.04924 28.1448 5.38636C27.9403 5.72348 27.838 6.10795 27.838 6.53977V12.1761H26.8267Z" fill="black"/>
<path d="M20.358 12.375C19.8315 12.375 19.3504 12.2727 18.9148 12.0682C18.4792 11.8599 18.1326 11.5606 17.875 11.1705C17.6174 10.7765 17.4886 10.2993 17.4886 9.73865C17.4886 9.30683 17.5701 8.9432 17.733 8.64774C17.8958 8.35229 18.1269 8.10986 18.4261 7.92047C18.7254 7.73107 19.0796 7.58145 19.4886 7.4716C19.8977 7.36176 20.3485 7.27653 20.8409 7.21592C21.3296 7.15532 21.7424 7.10229 22.0796 7.05683C22.4205 7.01138 22.6799 6.93941 22.858 6.84092C23.036 6.74244 23.125 6.58335 23.125 6.36365V6.1591C23.125 5.56441 22.947 5.0966 22.5909 4.7557C22.2386 4.411 21.7311 4.23865 21.0682 4.23865C20.4394 4.23865 19.9261 4.37691 19.5284 4.65342C19.1345 4.92994 18.858 5.2557 18.6989 5.6307L17.7386 5.2841C17.9356 4.80683 18.2083 4.42615 18.5568 4.14206C18.9053 3.85418 19.2955 3.64774 19.7273 3.52274C20.1591 3.39395 20.5966 3.32956 21.0398 3.32956C21.3731 3.32956 21.7197 3.37312 22.0796 3.46024C22.4432 3.54736 22.7803 3.69888 23.0909 3.91479C23.4015 4.12691 23.6534 4.42426 23.8466 4.80683C24.0398 5.18562 24.1364 5.66668 24.1364 6.25001V12.1762H23.125V10.7955H23.0625C22.9413 11.053 22.7614 11.303 22.5227 11.5455C22.2841 11.7879 21.9849 11.9868 21.625 12.1421C21.2652 12.2974 20.8428 12.375 20.358 12.375ZM20.4943 11.4489C21.0322 11.4489 21.4981 11.3296 21.8921 11.0909C22.286 10.8523 22.589 10.536 22.8011 10.1421C23.0171 9.74433 23.125 9.30683 23.125 8.82956V7.5682C23.0493 7.64017 22.9224 7.70456 22.7443 7.76138C22.5701 7.8182 22.3674 7.86933 22.1364 7.91479C21.9091 7.95645 21.6818 7.99244 21.4546 8.02274C21.2273 8.05304 21.0227 8.07956 20.8409 8.10229C20.3485 8.16289 19.928 8.25759 19.5796 8.38638C19.2311 8.51517 18.964 8.6932 18.7784 8.92047C18.5928 9.14395 18.5 9.43183 18.5 9.7841C18.5 10.3144 18.6894 10.7254 19.0682 11.0171C19.447 11.3049 19.9224 11.4489 20.4943 11.4489Z" fill="black"/>
<path d="M12.152 12.358C11.3376 12.358 10.633 12.1686 10.0383 11.7898C9.44362 11.4072 8.98339 10.8788 8.65764 10.2046C8.33567 9.52653 8.17468 8.74623 8.17468 7.86365C8.17468 6.98486 8.33567 6.20456 8.65764 5.52274C8.98339 4.83713 9.43226 4.30115 10.0042 3.91479C10.58 3.52463 11.2448 3.32956 11.9985 3.32956C12.472 3.32956 12.9285 3.41668 13.3679 3.59092C13.8073 3.76138 14.2012 4.02463 14.5497 4.3807C14.902 4.73297 15.1804 5.17804 15.3849 5.71592C15.5895 6.25001 15.6917 6.88259 15.6917 7.61365V8.11365H8.87355V7.2216H14.6576C14.6576 6.661 14.544 6.15721 14.3167 5.71024C14.0932 5.25948 13.7807 4.90342 13.3792 4.64206C12.9815 4.3807 12.5213 4.25001 11.9985 4.25001C11.4455 4.25001 10.9588 4.39774 10.5383 4.6932C10.1179 4.98865 9.78832 5.3788 9.54968 5.86365C9.31483 6.3485 9.19552 6.8788 9.19173 7.45456V7.98865C9.19173 8.68183 9.31105 9.28789 9.54968 9.80683C9.79211 10.322 10.1349 10.7216 10.5781 11.0057C11.0213 11.2898 11.5459 11.4318 12.152 11.4318C12.5648 11.4318 12.9266 11.3674 13.2372 11.2387C13.5516 11.1099 13.8148 10.9375 14.027 10.7216C14.2429 10.5019 14.4057 10.2614 14.5156 10L15.4758 10.3125C15.3432 10.6799 15.1254 11.019 14.8224 11.3296C14.5232 11.6402 14.1482 11.8902 13.6974 12.0796C13.2504 12.2652 12.7353 12.358 12.152 12.358Z" fill="black"/>
<path d="M6.28409 5.36365L5.35795 5.62501C5.26705 5.36365 5.13826 5.12691 4.97159 4.91479C4.80492 4.70267 4.58712 4.5341 4.31818 4.4091C4.05303 4.2841 3.72348 4.2216 3.32955 4.2216C2.73864 4.2216 2.25379 4.36176 1.875 4.64206C1.49621 4.92236 1.30682 5.2841 1.30682 5.72729C1.30682 6.10229 1.43561 6.40721 1.69318 6.64206C1.95455 6.87312 2.35606 7.05683 2.89773 7.1932L4.21591 7.51706C4.94697 7.69509 5.49432 7.97729 5.85795 8.36365C6.22538 8.75001 6.40909 9.23486 6.40909 9.8182C6.40909 10.3106 6.27273 10.7481 6 11.1307C5.72727 11.5133 5.34659 11.8144 4.85795 12.0341C4.37311 12.25 3.81061 12.358 3.17045 12.358C2.31818 12.358 1.61553 12.1667 1.0625 11.7841C0.50947 11.3977 0.155303 10.8409 0 10.1137L0.971591 9.87501C1.09659 10.394 1.34091 10.786 1.70455 11.0512C2.07197 11.3163 2.55492 11.4489 3.15341 11.4489C3.82386 11.4489 4.35985 11.2993 4.76136 11C5.16288 10.697 5.36364 10.3182 5.36364 9.86365C5.36364 9.51138 5.24621 9.21592 5.01136 8.97729C4.77652 8.73486 4.42045 8.55683 3.94318 8.4432L2.51705 8.10229C1.75947 7.92047 1.19886 7.63259 0.835227 7.23865C0.471591 6.84471 0.289773 6.35607 0.289773 5.77274C0.289773 5.29168 0.420455 4.86933 0.681818 4.5057C0.943182 4.13827 1.30303 3.85039 1.76136 3.64206C2.2197 3.43373 2.74242 3.32956 3.32955 3.32956C4.12879 3.32956 4.76705 3.51138 5.24432 3.87501C5.72538 4.23486 6.07197 4.73107 6.28409 5.36365Z" fill="black"/>
</svg>
